<svg width="18" height="17" viewBox="0 0 18 17" fill="none" xmlns="http://www.w3.org/2000/svg">
<path d="M4.3989 16.1056V5.30049H0.810626V16.1056H4.39928H4.3989ZM2.60551 3.82549C3.85656 3.82549 4.63542 2.99578 4.63542 1.95888C4.612 0.898348 3.85656 0.0917969 2.62931 0.0917969C1.40121 0.0917969 0.599121 0.898349 0.599121 1.95878C0.599121 2.99568 1.3777 3.82539 2.582 3.82539H2.60523L2.60551 3.82549ZM6.38506 16.1056H9.97306V10.0722C9.97306 9.7497 9.99648 9.42635 10.0913 9.196C10.3505 8.55051 10.9409 7.88234 11.9324 7.88234C13.2305 7.88234 13.7501 8.87311 13.7501 10.3258V16.1056H17.338V9.9103C17.338 6.59156 15.568 5.04717 13.2073 5.04717C11.2718 5.04717 10.4217 6.12992 9.94946 6.86738H9.97334V5.30087H6.38525C6.43209 6.31452 6.38497 16.106 6.38497 16.106L6.38506 16.1056Z" fill="#0A0D12"/>
</svg>
