<svg width="18" height="20" viewBox="0 0 18 20" fill="none" xmlns="http://www.w3.org/2000/svg">
<path d="M15.2758 4.25337C15.1431 4.18479 15.014 4.10961 14.8888 4.02811C14.5248 3.78747 14.1911 3.50393 13.8948 3.1836C13.1535 2.3354 12.8766 1.47491 12.7746 0.872452H12.7787C12.6936 0.37238 12.7288 0.0488281 12.7341 0.0488281H9.35769V13.1048C9.35769 13.2801 9.35769 13.4533 9.35032 13.6245C9.35032 13.6458 9.34827 13.6655 9.34704 13.6884C9.34704 13.6978 9.34704 13.7076 9.345 13.7175C9.345 13.7199 9.345 13.7224 9.345 13.7248C9.30941 14.1933 9.15924 14.6458 8.90771 15.0426C8.65619 15.4394 8.311 15.7683 7.90253 16.0003C7.47681 16.2425 6.99531 16.3696 6.50552 16.369C4.9324 16.369 3.65744 15.0862 3.65744 13.502C3.65744 11.9179 4.9324 10.6351 6.50552 10.6351C6.80331 10.6348 7.09926 10.6817 7.38239 10.774L7.38648 7.33612C6.52697 7.22509 5.65377 7.2934 4.82197 7.53674C3.99018 7.78007 3.21784 8.19315 2.55368 8.74992C1.97173 9.25556 1.48247 9.85888 1.10794 10.5327C0.965411 10.7785 0.42766 11.7659 0.36254 13.3685C0.321584 14.2782 0.59476 15.2205 0.725 15.61V15.6182C0.806912 15.8476 1.12432 16.6303 1.64159 17.2901C2.0587 17.8193 2.55151 18.2842 3.10413 18.6699V18.6617L3.11232 18.6699C4.74687 19.7806 6.55917 19.7077 6.55917 19.7077C6.8729 19.695 7.92383 19.7077 9.11728 19.1421C10.441 18.515 11.1946 17.5808 11.1946 17.5808C11.676 17.0226 12.0588 16.3865 12.3266 15.6997C12.6321 14.8966 12.7341 13.9333 12.7341 13.5483V6.62185C12.7751 6.64642 13.3206 7.00724 13.3206 7.00724C13.3206 7.00724 14.1065 7.511 15.3328 7.83906C16.2125 8.07251 17.3978 8.12165 17.3978 8.12165V4.76982C16.9825 4.81487 16.1392 4.68381 15.2758 4.25337Z" fill="#0A0D12"/>
</svg>
